# xmcd
#
# Track frame offsets: 
#        150
#        25408
#        46960
#        67214
#        97027
#        116725
#        131183
#        146555
#        162425
#        182923
#        211756
#
# Disc length: 2990 seconds
#
# Revision: 0
# Processed by: cddbd v1.5.2PL0 Copyright (c) Steve Scherf et al.
# Submitted via: ExactAudioCopy v0.99pb5
#
DISCID=ab0bac0b
DTITLE=Oberg - Blues As Blues Can Get
DYEAR=2009
DGENRE=Blues
TTITLE0=Blues As Blues Can Get
TTITLE1=Wishing Well
TTITLE2=What You Got
TTITLE3=Head Up High
TTITLE4=Wanna Run
TTITLE5=If You Dont Know
TTITLE6=Life Goes On
TTITLE7=Black Spider
TTITLE8=Six String On A Wing
TTITLE9=I Want You
TTITLE10=Last Station
EXTD=
EXTT0=
EXTT1=
EXTT2=
EXTT3=
EXTT4=
EXTT5=
EXTT6=
EXTT7=
EXTT8=
EXTT9=
EXTT10=
PLAYORDER=
